<svg width="225" height="225" viewBox="0 0 225 225" fill="none" xmlns="http://www.w3.org/2000/svg">
  <path
    d="M41.74 105.782L87.09 87.796L105.02 42.3035C107.29 36.5655 116.7 36.5655 118.97 42.3035L136.9 87.796L182.25 105.782C185.11 106.916 187 109.695 187 112.774C187 115.854 185.12 118.633 182.25 119.766L136.9 137.753L118.97 183.245C117.84 186.114 115.07 188 112 188C108.93 188 106.16 186.114 105.03 183.245L87.1 137.753L41.75 119.766C38.89 118.633 37 115.854 37 112.774C37 109.695 38.87 106.916 41.74 105.782Z"
    fill="white" />
  <path
    d="M24.847 103.557L81.5345 81.144L103.947 24.4566C106.784 17.3066 118.547 17.3066 121.384 24.4566L143.797 81.144L200.484 103.557C204.059 104.969 206.422 108.432 206.422 112.269C206.422 116.107 204.072 119.569 200.484 120.982L143.797 143.394L121.384 200.082C119.972 203.657 116.509 206.007 112.672 206.007C108.834 206.007 105.372 203.657 103.959 200.082L81.547 143.394L24.8595 120.982C21.2845 119.569 18.922 116.107 18.922 112.269C18.922 108.432 21.2595 104.969 24.847 103.557Z"
    stroke="white" stroke-width="2" />
</svg>